<svg version="1.1" viewBox="0.0 0.0 960.0 540.0" fill="none" stroke="none" stroke-linecap="square" stroke-miterlimit="10" xmlns:xlink="http://www.w3.org/1999/xlink" xmlns="http://www.w3.org/2000/svg"><clipPath id="g3d75d09c2e6_0_0.0"><path d="m0 0l960.0 0l0 540.0l-960.0 0l0 -540.0z" clip-rule="nonzero"/></clipPath><g clip-path="url(#g3d75d09c2e6_0_0.0)"><path fill="#000000" fill-opacity="0.0" d="m0 0l960.0 0l0 540.0l-960.0 0z" fill-rule="evenodd"/><g filter="url(#shadowFilter-g3d75d09c2e6_0_0.1)"><use xlink:href="#g3d75d09c2e6_0_0.1" transform="matrix(1.0 0.0 0.0 1.0 0.0 2.0)"/></g><defs><filter id="shadowFilter-g3d75d09c2e6_0_0.1" filterUnits="userSpaceOnUse"><feGaussianBlur in="SourceAlpha" stdDeviation="2.0" result="blur"/><feComponentTransfer in="blur" color-interpolation-filters="sRGB"><feFuncR type="linear" slope="0" intercept="0.0"/><feFuncG type="linear" slope="0" intercept="0.0"/><feFuncB type="linear" slope="0" intercept="0.0"/><feFuncA type="linear" slope="0.5" intercept="0"/></feComponentTransfer></filter></defs><g id="g3d75d09c2e6_0_0.1"><defs><radialGradient id="g3d75d09c2e6_0_0.2" gradientUnits="userSpaceOnUse" gradientTransform="matrix(23.107368961612313 0.0 0.0 23.107368961612313 0.0 0.0)" spreadMethod="pad" cx="20.73874546632305" cy="11.75129916316864" fx="20.73874546632305" fy="11.75129916316864" r="23.10736846923828"><stop offset="0.0" stop-color="#d4e5f5"/><stop offset="1.0" stop-color="#70a4d5"/></radialGradient></defs><path fill="url(#g3d75d09c2e6_0_0.2)" d="m245.44547 20.841925c-38.89914 0 -72.75818 6.170971 -101.57716 18.512907c-28.754356 12.277325 -50.78858 29.530201 -66.10269 51.758602c-15.249489 22.228424 -22.874245 47.623093 -22.874245 76.18402c0 27.397812 6.8493576 50.33702 20.54805 68.81761c13.698692 18.415985 30.175903 32.98723 49.431633 43.71373c19.255722 10.726501 44.16539 22.066864 74.729004 34.021088c23.84349 9.498779 42.291504 17.54367 55.34404 24.134644c13.117157 6.526367 24.037354 14.668182 32.76056 24.425415c8.787842 9.692627 13.181793 21.291443 13.181793 34.79651c0 21.840729 -9.530945 38.802826 -28.592834 50.88626c-19.06186 12.083466 -45.457703 18.125214 -79.18753 18.125214c-32.56671 0 -57.896378 -4.3616943 -75.98901 -13.0850525c-18.028008 -8.723358 -27.042007 -22.002258 -27.042007 -39.83667c0 -4.3940125 0.29077148 -8.561829 0.8723221 -12.503479c0.58154297 -4.006317 0.8723221 -6.784851 0.8723221 -8.335663c1.1630936 -6.00943 1.7446442 -12.95578 1.7446442 -20.839142c0 -8.787964 -3.3600693 -15.96051 -10.080177 -21.517609c-6.720108 -5.5570984 -15.4433365 -8.335663 -26.169685 -8.335663c-14.732567 0 -25.878914 5.783264 -33.43905 17.349792c-7.495531 11.501892 -11.243274 28.173218 -11.243274 50.013947c0 41.290558 15.863339 71.95157 47.59006 91.98297c31.791325 20.031403 74.082825 30.04715 126.87453 30.04715c59.57643 0 107.10188 -12.600403 142.57634 -37.80124c35.539062 -25.200836 53.308624 -61.225067 53.308624 -108.072754c0 -25.006958 -6.46167 -46.039948 -19.384949 -63.09897c-12.858704 -17.123627 -28.431274 -30.628693 -46.717743 -40.515167c-18.221863 -9.95108 -42.420746 -21.065308 -72.596664 -33.342606c-25.006592 -9.951111 -44.45616 -18.480606 -58.34871 -25.588531c-13.892548 -7.172531 -25.523514 -16.122055 -34.892914 -26.848557c-9.304779 -10.726517 -13.957169 -23.617706 -13.957169 -38.67357c0 -22.61612 9.014008 -40.192078 27.042007 -52.72786c18.092636 -12.535797 44.197693 -18.803688 78.315216 -18.803688c24.231201 0 44.488464 4.3939896 60.77182 13.181961c16.283386 8.723366 24.425049 21.4207 24.425049 38.092003c0 3.1662598 -0.58154297 10.694199 -1.7446289 22.583817c-1.2277222 6.3971252 -1.8415833 13.343521 -1.8415833 20.839142c0 8.787979 3.4569702 16.34822 10.370941 22.680725c6.978607 6.3325195 15.637207 9.498779 25.97586 9.498779c14.667938 0 25.781982 -6.3325043 33.342102 -18.997543c7.56015 -12.7296295 11.34021 -31.597946 11.34021 -56.60492c0 -25.39466 -7.2693787 -46.81536 -21.808075 -64.26208c-14.474091 -17.511337 -33.82675 -30.531757 -58.057953 -39.06127c-24.166565 -8.529507 -50.756256 -12.79426 -79.76907 -12.79426z" fill-rule="evenodd"/><defs><radialGradient id="g3d75d09c2e6_0_0.3" gradientUnits="userSpaceOnUse" gradientTransform="matrix(23.107368961612313 0.0 0.0 23.107368961612313 0.0 0.0)" spreadMethod="pad" cx="20.73874546632305" cy="11.75129916316864" fx="20.73874546632305" fy="11.75129916316864" r="23.10736846923828"><stop offset="0.0" stop-color="#d4e5f5"/><stop offset="1.0" stop-color="#70a4d5"/></radialGradient></defs><path fill="url(#g3d75d09c2e6_0_0.3)" d="m780.256 79.77307c7.4955444 0 13.440247 3.8770447 17.834167 11.631142c4.393921 7.754097 6.5908813 19.966805 6.5908813 36.638115c0 28.948639 -7.7539673 65.65138 -23.261963 110.108185c-25.006592 -18.609833 -37.509888 -47.39691 -37.509888 -86.36127c0 -23.003815 3.3601074 -40.741318 10.0802 -53.212486c6.784729 -12.535797 15.540283 -18.803688 26.266602 -18.803688zm14.247986 -67.84836c-20.612732 0 -39.38379 5.36325 -56.313293 16.089752c-16.86493 10.661884 -30.175903 26.81625 -39.933044 48.46311c-9.692444 21.646858 -14.538696 48.14003 -14.538696 79.4795c0 31.404099 6.13855 59.125 18.41571 83.162704c12.341736 23.973083 30.628235 43.519867 54.859436 58.64035c-20.224976 43.229095 -42.453064 79.1564 -66.684265 107.78198c-24.231201 28.560913 -46.653137 42.84137 -67.26581 42.84137c-20.28955 0 -35.506775 -15.766632 -45.65155 -47.299988c-10.0802 -31.59793 -15.120239 -77.76712 -15.120239 -138.50757c0 -57.961884 5.944702 -122.6763 17.834106 -194.14322c0.84002686 -6.3325195 1.2600708 -10.694199 1.2600708 -13.085041c0 -22.616116 -13.1171875 -33.92418 -39.3515 -33.92418c-15.89563 0 -27.106628 3.683195 -33.632874 11.049589c-6.5262756 7.301773 -11.598663 21.291454 -15.217194 41.96905c-9.886322 55.57103 -14.829498 118.2823 -14.829498 188.1338c0 81.805725 10.112488 146.7463 30.337463 194.82172c20.224976 48.010803 50.98242 72.016174 92.2724 72.016174c40.12683 0 80.12445 -19.546783 119.99286 -58.64035c39.932983 -39.158203 73.9859 -88.299805 102.15869 -147.4248c21.60431 4.876648 45.970398 7.314972 73.098206 7.314972c3.7852173 0 7.6242676 -0.047454834 11.517151 -0.14242554c13.05249 -0.45233154 22.648071 -4.6201477 28.786621 -12.503479c6.203186 -7.9479675 9.30481 -17.091309 9.30481 -27.430115c0 -6.3325195 -2.1000366 -11.4696045 -6.30011 -15.411285c-4.135437 -4.0062866 -10.790955 -6.00943 -19.966553 -6.00943c-26.945068 0 -50.950073 -1.8092957 -72.015076 -5.4278564c19.83728 -53.955612 29.75592 -103.775696 29.75592 -149.46024c0 -31.727188 -7.463196 -56.70184 -22.389648 -74.923965c-14.861816 -18.286747 -34.98987 -27.430119 -60.384094 -27.430119z" fill-rule="evenodd"/><path stroke="#595959" stroke-width="1.0" stroke-linejoin="round" stroke-linecap="butt" d="m245.44547 20.841925c-38.89914 0 -72.75818 6.170971 -101.57716 18.512907c-28.754356 12.277325 -50.78858 29.530201 -66.10269 51.758602c-15.249489 22.228424 -22.874245 47.623093 -22.874245 76.18402c0 27.397812 6.8493576 50.33702 20.54805 68.81761c13.698692 18.415985 30.175903 32.98723 49.431633 43.71373c19.255722 10.726501 44.16539 22.066864 74.729004 34.021088c23.84349 9.498779 42.291504 17.54367 55.34404 24.134644c13.117157 6.526367 24.037354 14.668182 32.76056 24.425415c8.787842 9.692627 13.181793 21.291443 13.181793 34.79651c0 21.840729 -9.530945 38.802826 -28.592834 50.88626c-19.06186 12.083466 -45.457703 18.125214 -79.18753 18.125214c-32.56671 0 -57.896378 -4.3616943 -75.98901 -13.0850525c-18.028008 -8.723358 -27.042007 -22.002258 -27.042007 -39.83667c0 -4.3940125 0.29077148 -8.561829 0.8723221 -12.503479c0.58154297 -4.006317 0.8723221 -6.784851 0.8723221 -8.335663c1.1630936 -6.00943 1.7446442 -12.95578 1.7446442 -20.839142c0 -8.787964 -3.3600693 -15.96051 -10.080177 -21.517609c-6.720108 -5.5570984 -15.4433365 -8.335663 -26.169685 -8.335663c-14.732567 0 -25.878914 5.783264 -33.43905 17.349792c-7.495531 11.501892 -11.243274 28.173218 -11.243274 50.013947c0 41.290558 15.863339 71.95157 47.59006 91.98297c31.791325 20.031403 74.082825 30.04715 126.87453 30.04715c59.57643 0 107.10188 -12.600403 142.57634 -37.80124c35.539062 -25.200836 53.308624 -61.225067 53.308624 -108.072754c0 -25.006958 -6.46167 -46.039948 -19.384949 -63.09897c-12.858704 -17.123627 -28.431274 -30.628693 -46.717743 -40.515167c-18.221863 -9.95108 -42.420746 -21.065308 -72.596664 -33.342606c-25.006592 -9.951111 -44.45616 -18.480606 -58.34871 -25.588531c-13.892548 -7.172531 -25.523514 -16.122055 -34.892914 -26.848557c-9.304779 -10.726517 -13.957169 -23.617706 -13.957169 -38.67357c0 -22.61612 9.014008 -40.192078 27.042007 -52.72786c18.092636 -12.535797 44.197693 -18.803688 78.315216 -18.803688c24.231201 0 44.488464 4.3939896 60.77182 13.181961c16.283386 8.723366 24.425049 21.4207 24.425049 38.092003c0 3.1662598 -0.58154297 10.694199 -1.7446289 22.583817c-1.2277222 6.3971252 -1.8415833 13.343521 -1.8415833 20.839142c0 8.787979 3.4569702 16.34822 10.370941 22.680725c6.978607 6.3325195 15.637207 9.498779 25.97586 9.498779c14.667938 0 25.781982 -6.3325043 33.342102 -18.997543c7.56015 -12.7296295 11.34021 -31.597946 11.34021 -56.60492c0 -25.39466 -7.2693787 -46.81536 -21.808075 -64.26208c-14.474091 -17.511337 -33.82675 -30.531757 -58.057953 -39.06127c-24.166565 -8.529507 -50.756256 -12.79426 -79.76907 -12.79426z" fill-rule="evenodd"/><path stroke="#595959" stroke-width="1.0" stroke-linejoin="round" stroke-linecap="butt" d="m780.256 79.77307c7.4955444 0 13.440247 3.8770447 17.834167 11.631142c4.393921 7.754097 6.5908813 19.966805 6.5908813 36.638115c0 28.948639 -7.7539673 65.65138 -23.261963 110.108185c-25.006592 -18.609833 -37.509888 -47.39691 -37.509888 -86.36127c0 -23.003815 3.3601074 -40.741318 10.0802 -53.212486c6.784729 -12.535797 15.540283 -18.803688 26.266602 -18.803688zm14.247986 -67.84836c-20.612732 0 -39.38379 5.36325 -56.313293 16.089752c-16.86493 10.661884 -30.175903 26.81625 -39.933044 48.46311c-9.692444 21.646858 -14.538696 48.14003 -14.538696 79.4795c0 31.404099 6.13855 59.125 18.41571 83.162704c12.341736 23.973083 30.628235 43.519867 54.859436 58.64035c-20.224976 43.229095 -42.453064 79.1564 -66.684265 107.78198c-24.231201 28.560913 -46.653137 42.84137 -67.26581 42.84137c-20.28955 0 -35.506775 -15.766632 -45.65155 -47.299988c-10.0802 -31.59793 -15.120239 -77.76712 -15.120239 -138.50757c0 -57.961884 5.944702 -122.6763 17.834106 -194.14322c0.84002686 -6.3325195 1.2600708 -10.694199 1.2600708 -13.085041c0 -22.616116 -13.1171875 -33.92418 -39.3515 -33.92418c-15.89563 0 -27.106628 3.683195 -33.632874 11.049589c-6.5262756 7.301773 -11.598663 21.291454 -15.217194 41.96905c-9.886322 55.57103 -14.829498 118.2823 -14.829498 188.1338c0 81.805725 10.112488 146.7463 30.337463 194.82172c20.224976 48.010803 50.98242 72.016174 92.2724 72.016174c40.12683 0 80.12445 -19.546783 119.99286 -58.64035c39.932983 -39.158203 73.9859 -88.299805 102.15869 -147.4248c21.60431 4.876648 45.970398 7.314972 73.098206 7.314972c3.7852173 0 7.6242676 -0.047454834 11.517151 -0.14242554c13.05249 -0.45233154 22.648071 -4.6201477 28.786621 -12.503479c6.203186 -7.9479675 9.30481 -17.091309 9.30481 -27.430115c0 -6.3325195 -2.1000366 -11.4696045 -6.30011 -15.411285c-4.135437 -4.0062866 -10.790955 -6.00943 -19.966553 -6.00943c-26.945068 0 -50.950073 -1.8092957 -72.015076 -5.4278564c19.83728 -53.955612 29.75592 -103.775696 29.75592 -149.46024c0 -31.727188 -7.463196 -56.70184 -22.389648 -74.923965c-14.861816 -18.286747 -34.98987 -27.430119 -60.384094 -27.430119z" fill-rule="evenodd"/></g></g></svg>