<svg version="1.1" viewBox="0.0 0.0 960.0 540.0" fill="none" stroke="none" stroke-linecap="square" stroke-miterlimit="10" xmlns:xlink="http://www.w3.org/1999/xlink" xmlns="http://www.w3.org/2000/svg"><clipPath id="p.0"><path d="m0 0l960.0 0l0 540.0l-960.0 0l0 -540.0z" clip-rule="nonzero"/></clipPath><g clip-path="url(#p.0)"><path fill="#000000" fill-opacity="0.0" d="m0 0l960.0 0l0 540.0l-960.0 0z" fill-rule="evenodd"/><g filter="url(#shadowFilter-p.1)"><use xlink:href="#p.1" transform="matrix(1.0 0.0 0.0 1.0 0.0 2.0)"/></g><defs><filter id="shadowFilter-p.1" filterUnits="userSpaceOnUse"><feGaussianBlur in="SourceAlpha" stdDeviation="2.0" result="blur"/><feComponentTransfer in="blur" color-interpolation-filters="sRGB"><feFuncR type="linear" slope="0" intercept="0.0"/><feFuncG type="linear" slope="0" intercept="0.0"/><feFuncB type="linear" slope="0" intercept="0.0"/><feFuncA type="linear" slope="0.5" intercept="0"/></feComponentTransfer></filter></defs><g id="p.1"><defs><radialGradient id="p.2" gradientUnits="userSpaceOnUse" gradientTransform="matrix(21.920381310504162 0.0 0.0 21.920381310504162 0.0 0.0)" spreadMethod="pad" cx="21.890299015782617" cy="10.882338363194552" fx="21.890299015782617" fy="10.882338363194552" r="21.920381546020508"><stop offset="0.0" stop-color="#d4e5f5"/><stop offset="1.0" stop-color="#70a4d5"/></radialGradient></defs><path fill="url(#p.2)" d="m68.85609 171.99007c-10.462265 0 -19.568954 1.6597443 -27.320095 4.979233c-7.7337227 3.3021088 -13.660048 7.942459 -17.778917 13.9210205c-4.101507 5.9785614 -6.152235 12.808716 -6.152235 20.490463c0 7.368927 1.8421783 13.538666 5.5265846 18.509216c3.6844063 4.953171 8.116102 8.872253 13.295086 11.757248c5.178982 2.8850098 11.878662 5.9351196 20.099041 9.15033c6.412922 2.5547943 11.374672 4.7185516 14.885277 6.491272c3.5279694 1.75531 6.465065 3.94516 8.811256 6.569458c2.3635788 2.6069336 3.5453568 5.7265625 3.5453568 9.358887c0 5.8742676 -2.5634232 10.436401 -7.6902924 13.686371c-5.126877 3.2499695 -12.226269 4.8749695 -21.29821 4.8749695c-8.759113 0 -15.571774 -1.1731262 -20.437935 -3.5193481c-4.848793 -2.3462524 -7.2731915 -5.917755 -7.2731915 -10.714508c0 -1.1817932 0.078207016 -2.3027954 0.23461914 -3.362915c0.15641212 -1.0775452 0.23461914 -1.8248596 0.23461914 -2.2419739c0.31282616 -1.6163025 0.46923828 -3.4845886 0.46923828 -5.604889c0 -2.363617 -0.9037018 -4.292755 -2.711155 -5.787384c-1.8074532 -1.4946594 -4.1536446 -2.2419739 -7.038574 -2.2419739c-3.9624567 0 -6.960368 1.555481 -8.993734 4.6664124c-2.0160036 3.0935364 -3.0239797 7.5774536 -3.0239797 13.451752c0 11.10553 4.2665753 19.352112 12.799778 24.739777c8.550564 5.387665 19.925266 8.081482 34.12405 8.081482c16.023628 0 28.806015 -3.3890076 38.3472 -10.167023c9.558563 -6.778015 14.337837 -16.467102 14.337837 -29.067291c0 -6.7258606 -1.7379303 -12.382904 -5.2137604 -16.971115c-3.4584656 -4.6055756 -7.646866 -8.2379 -12.565163 -10.896973c-4.9009323 -2.6764374 -11.409447 -5.6657257 -19.52552 -8.967834c-6.725754 -2.6764526 -11.956898 -4.9705505 -15.693417 -6.8822937c-3.7365189 -1.9291382 -6.86475 -4.336197 -9.384766 -7.2212067c-2.5026054 -2.8849945 -3.7539062 -6.3522186 -3.7539062 -10.401642c0 -6.08284 2.4243965 -10.810074 7.2731934 -14.181702c4.866184 -3.371643 11.887371 -5.0574493 21.063587 -5.0574493c6.5171967 0 11.965576 1.1818085 16.34513 3.5454254c4.3795547 2.3462372 6.569336 5.761307 6.569336 10.245239c0 0.851593 -0.15641022 2.8763123 -0.46923828 6.0741425c-0.33021545 1.720581 -0.49530792 3.5888824 -0.49530792 5.604904c0 2.363617 0.9297943 4.3970184 2.78936 6.1002197c1.8769531 1.703186 4.205757 2.5547943 6.9864426 2.5547943c3.9450684 0 6.9342957 -1.7032013 8.967659 -5.1095886c2.033371 -3.423767 3.0500488 -8.498596 3.0500488 -15.224472c0 -6.8301697 -1.9551544 -12.591476 -5.8654785 -17.28395c-3.892929 -4.709854 -9.098007 -8.211838 -15.615204 -10.505936c-6.4998093 -2.294098 -13.651344 -3.4411469 -21.45462 -3.4411469z" fill-rule="evenodd"/><defs><radialGradient id="p.3" gradientUnits="userSpaceOnUse" gradientTransform="matrix(21.920381310504162 0.0 0.0 21.920381310504162 0.0 0.0)" spreadMethod="pad" cx="21.890299015782617" cy="10.882338363194552" fx="21.890299015782617" fy="10.882338363194552" r="21.920381546020508"><stop offset="0.0" stop-color="#d4e5f5"/><stop offset="1.0" stop-color="#70a4d5"/></radialGradient></defs><path fill="url(#p.3)" d="m253.51358 174.38844c-1.9117126 0 -3.6409302 0.5126953 -5.1876984 1.5380859c-1.5467377 1.0080109 -2.806717 2.5808563 -3.7799683 4.7185516l-14.885284 33.290497c-0.5387573 1.286087 -0.808136 2.3027954 -0.808136 3.0501099c0 1.5989227 0.5561371 2.963211 1.6684113 4.0928802c1.1296387 1.1122894 2.4417572 1.6684418 3.936386 1.6684418c2.033371 0 3.745224 -0.90374756 5.135544 -2.7112122l20.646484 -26.590698c2.3635864 -2.989273 3.5453491 -5.978546 3.5453491 -8.967834c0 -2.8850098 -1.0427246 -5.283386 -3.1282349 -7.1951294c-2.0855103 -1.9291229 -4.466461 -2.893692 -7.142853 -2.893692zm87.318115 -1.2774048c0.95584106 0 1.7813416 1.1209869 2.476532 3.3629456c0.6951599 2.2419586 1.0427551 5.387665 1.0427551 9.437088c0 15.815384 -5.9784546 36.74904 -17.935333 62.800964c0.6430359 -12.704437 1.685791 -24.878815 3.1282654 -36.5231c1.4424744 -11.644287 3.171692 -21.063995 5.187683 -28.259125c2.0333557 -7.212509 4.066742 -10.818756 6.1000977 -10.818771zm41.479584 75.91383c1.9116821 0 3.4236755 0.6169739 4.5359497 1.8509216c1.1296692 1.216568 1.6944885 2.8415527 1.6944885 4.874954c0 3.9451447 -1.8161316 7.412369 -5.448395 10.401657c-3.6148682 2.9892883 -8.57663 5.2312317 -14.885284 6.725891l0 -0.3128357c0 -6.517334 1.3642883 -12.070099 4.092804 -16.658295c2.7285461 -4.588196 6.065338 -6.8822937 10.010437 -6.8822937zm-220.08224 -1.1209869l-5.917618 29.458328c-0.9558563 4.6055603 -2.502594 8.298706 -4.6402435 11.079437c-2.1376343 2.7633667 -4.3795624 4.1450195 -6.725754 4.1450195c-2.3461914 0 -4.188385 -0.7994385 -5.526581 -2.3983765c-1.3381805 -1.5989075 -2.0072937 -4.058136 -2.0072937 -7.377594c0 -5.9785767 1.1209564 -11.63562 3.3628693 -16.97113c2.241928 -5.3355103 5.2572174 -9.628265 9.045883 -12.878235c3.7886505 -3.2673492 7.9249115 -4.953171 12.408737 -5.0574493zm144.94785 1.1209869c-0.20855713 5.7700043 -0.3128357 9.932404 -0.3128357 12.487183c0 7.16037 0.5387573 13.625549 1.616272 19.395569c-3.1108704 4.483917 -5.6829834 7.551422 -7.7163696 9.202484c-2.0159912 1.651062 -4.0406494 2.4765625 -6.0740356 2.4765625c-5.335388 0 -8.003113 -3.8930054 -8.003113 -11.679047c0 -7.368927 1.9464722 -14.068726 5.8394165 -20.099426c3.9103088 -6.0480804 8.793884 -9.975861 14.650665 -11.783325zm35.40143 -91.607544c-9.280487 0 -16.779602 7.3428497 -22.497375 22.028564c-5.7177734 14.66832 -9.584625 32.360703 -11.600616 53.077103c-7.9075317 0.851593 -15.041687 3.6062622 -21.402466 8.263977c-6.3434143 4.640335 -11.331268 10.6188965 -14.963501 17.935684c-3.5153503 7.081299 -5.32959 14.732391 -5.442749 22.953247l0 0c-2.1177368 2.315216 -3.9577026 4.170746 -5.519867 5.566559c-2.9371033 2.6069336 -5.4744415 3.9104004 -7.612091 3.9104004c-1.3903198 0 -2.5112762 -0.55615234 -3.3628693 -1.6684265c-0.851593 -1.1296692 -1.2773743 -2.7112122 -1.2773743 -4.744629c0 -3.197815 1.4945984 -11.63559 4.483841 -25.313293c2.6589966 -11.957123 3.9885254 -19.265213 3.9885254 -21.924286c0 -1.6162872 -0.4779358 -2.711197 -1.4337921 -3.284729c-0.9558563 -0.59091187 -2.6677246 -0.88635254 -5.135544 -0.88635254c-3.5106049 0 -6.152237 0.6951752 -7.9249268 2.0855408c-1.7552795 1.3903656 -3.0587158 3.6844635 -3.9103088 6.8822937c-2.5721283 9.506607 -5.222473 17.518585 -7.950989 24.03592c-2.7111511 6.499939 -5.2745667 11.357513 -7.6902924 14.572723c-2.3983307 3.1978455 -4.396942 4.796753 -5.995819 4.796753c-1.1644135 0 -2.0160065 -0.45187378 -2.5547485 -1.3555908c-0.5387573 -0.90374756 -0.8081207 -2.476593 -0.8081207 -4.718567c0 -3.7539673 1.0688171 -11.23587 3.2064514 -22.445648c0.6430359 -3.1978455 1.4946289 -6.769348 2.5547485 -10.714493c1.181778 -4.9184113 1.7726746 -7.803421 1.7726746 -8.655014c0 -1.4946289 -0.45184326 -2.6156158 -1.3555756 -3.3629456c-0.9037323 -0.74731445 -2.537384 -1.1209717 -4.90094 -1.1209717c-4.15361 0 -7.194977 0.6951752 -9.124069 2.0855408c-1.9117126 1.3903656 -3.406311 3.6844635 -4.483841 6.8822937c-2.4504547 7.4732056 -4.2144623 14.546692 -5.2919617 21.220428c-0.77497864 4.878662 -1.2667084 10.114899 -1.4751587 15.708679l0 0c-3.0518036 3.4855042 -5.598648 6.156952 -7.6405487 8.014374c-2.8849487 2.6069336 -5.344101 3.9104004 -7.3774567 3.9104004c-1.2860565 0 -2.3288116 -0.4779358 -3.1282654 -1.4338074c-0.79945374 -0.9732666 -1.1991577 -2.2593384 -1.1991577 -3.8582458c0 -4.796753 1.2339172 -13.338806 3.701767 -25.62613c1.598877 -8.429092 2.3983307 -13.764603 2.3983307 -16.006561c0 -3.7366028 -2.61557 -5.604904 -7.84671 -5.604904c-2.4678497 0 -4.8227234 0.20855713 -7.064636 0.6256561c-0.52137756 -2.3462372 -1.181778 -3.971222 -1.9812317 -4.874954c-0.79945374 -0.9037323 -2.3809662 -1.3556061 -4.744522 -1.3556061c-7.3687897 0 -14.337845 2.3201752 -20.90718 6.9605103c-6.551941 4.640335 -11.809158 10.783997 -15.771614 18.431c-3.9450684 7.629608 -5.917618 15.71109 -5.917618 24.244446c0 7.8034363 1.9725494 14.112183 5.917618 18.92633c3.9624557 4.796753 9.254417 7.1951294 15.875893 7.1951294c8.428909 0 15.415344 -4.483917 20.95932 -13.451782c1.5119781 4.153717 3.727829 7.438446 6.647537 9.854218c2.937088 2.3983765 6.1696167 3.5975647 9.697586 3.5975647c4.5881042 0 9.341309 -1.8683167 14.259628 -5.6049194c2.1295776 -1.6178894 4.2086334 -3.3970947 6.237213 -5.337555l0 0c0.63952637 1.5305786 1.4165497 2.9621887 2.3310547 4.2948c3.0413666 4.4317627 6.9690704 6.6476746 11.783096 6.6476746c4.15361 0 8.046539 -1.9465027 11.678818 -5.8395386c3.6322327 -3.9104004 6.3520813 -9.497925 8.159531 -16.762573c0 7.16037 1.1991577 12.721832 3.5974884 16.684357c2.4157257 3.94516 6.1870117 5.917755 11.313858 5.917755c6.725754 0 12.73024 -1.8161621 18.013535 -5.4484863c2.276123 -1.5648804 4.487732 -3.3184204 6.634796 -5.260681l0 0c0.7232666 1.2167664 1.5489197 2.3620605 2.4769287 3.4358215c4.2231445 4.8489075 9.593323 7.273346 16.110535 7.273346c4.4838257 0 8.402832 -0.9558716 11.757019 -2.8676453c3.3715515 -1.9291077 7.2992554 -5.726532 11.783081 -11.392273c4.275299 9.506592 10.470978 14.259918 18.587067 14.259918c5.1268616 0 10.305847 -1.8943787 15.536987 -5.6831055c2.7875977 -2.0282288 5.454254 -4.27359 8.0000305 -6.736084l0 0c0.77731323 1.1307373 1.6313171 2.2029724 2.5619507 3.2167053c5.6656494 6.1349792 13.625305 9.202484 23.879028 9.202484c6.7257385 0 12.513031 -1.2774048 17.361816 -3.8321838c4.8661804 -2.572174 8.793884 -6.1523743 11.783112 -10.74057c1.8074341 -2.7807312 2.7111511 -6.091522 2.7111511 -9.932404c0 -2.2419739 -0.39971924 -4.0059814 -1.1991882 -5.292053c-0.7994385 -1.2861023 -1.8943176 -1.9291382 -3.284668 -1.9291382c-1.598877 0 -3.0326538 0.7994385 -4.3013306 2.3983765c-3.7365417 4.8141174 -7.0212097 8.2378845 -9.854004 10.271301c-2.8328247 2.0160217 -6.4389954 3.0240479 -10.818573 3.0240479c-6.0827026 0 -10.410126 -2.450531 -12.982239 -7.3515625c12.704193 -3.0935364 21.697906 -7.282013 26.981201 -12.565399c5.300659 -5.3007507 7.950989 -11.63559 7.950989 -19.004517c0 -6.291397 -1.8682861 -11.279327 -5.6047974 -14.963791c-3.7365417 -3.6844635 -8.70697 -5.5266876 -14.911346 -5.5266876c-6.9342957 0 -13.156067 1.8683014 -18.665253 5.604904c-5.4918213 3.7365875 -9.784485 8.785355 -12.877991 15.1462555c-3.0935059 6.3435364 -4.640259 13.199768 -4.640259 20.568695c0 2.3913574 0.14755249 4.6701355 0.44262695 6.8363647l0 0c-2.276245 2.4657898 -4.241272 4.4102173 -5.895111 5.833313c-2.9892273 2.554779 -5.9263 3.8321838 -8.811249 3.8321838c-2.2419434 0 -4.0841064 -1.3295288 -5.5266113 -3.9885864c-1.4424744 -2.6764526 -2.3722534 -7.1169434 -2.7893372 -13.321442c9.819244 -16.858154 17.665924 -33.29918 23.5401 -49.32312c5.874176 -16.023926 8.811249 -30.014465 8.811249 -41.971573c0 -8.429077 -1.5293579 -14.720474 -4.5881042 -18.874191c-3.0413513 -4.1710815 -6.856079 -6.2566223 -11.444183 -6.2566223z" fill-rule="evenodd"/><defs><radialGradient id="p.4" gradientUnits="userSpaceOnUse" gradientTransform="matrix(21.920381310504162 0.0 0.0 21.920381310504162 0.0 0.0)" spreadMethod="pad" cx="21.890299015782617" cy="10.882338363194552" fx="21.890299015782617" fy="10.882338363194552" r="21.920381546020508"><stop offset="0.0" stop-color="#d4e5f5"/><stop offset="1.0" stop-color="#70a4d5"/></radialGradient></defs><path fill="url(#p.4)" d="m517.4869 184.16443c3.9451294 0 6.934326 1.1209869 8.967712 3.3629456c2.0333252 2.2419586 3.0500488 5.3355103 3.0500488 9.28067c0 5.439789 -1.4946289 10.462479 -4.4838867 15.068054c-2.9891968 4.588211 -8.646118 9.332825 -16.970764 14.233841c-4.50119 -7.994583 -6.7518005 -15.354813 -6.7518005 -22.080704c0 -5.6657257 1.4424744 -10.39296 4.327423 -14.181702c2.8849487 -3.7887268 6.838684 -5.6831055 11.861267 -5.6831055zm-17.935303 66.789566c6.5171814 9.610886 15.432739 21.194351 26.746582 34.75038c-7.5773315 3.6323242 -15.52832 5.4484863 -23.852936 5.4484863c-6.517212 0 -11.6440735 -1.3555908 -15.380615 -4.066803c-3.7365112 -2.7285767 -5.604767 -6.5520935 -5.604767 -11.4704895c0 -8.550751 6.0305786 -16.77127 18.091736 -24.661575zm19.056274 -83.60426c-7.3687744 0 -13.912048 1.5989075 -19.629791 4.796753c-5.7003784 3.1978302 -10.158142 7.7338867 -13.373291 13.60817c-3.1977844 5.874283 -4.7966614 12.652313 -4.7966614 20.33406c0 8.655014 3.0935059 18.639557 9.280487 29.953644c-10.983643 6.6215973 -18.90857 13.330093 -23.77475 20.125488c-4.86615 6.778015 -7.2992554 14.060059 -7.2992554 21.8461c0 5.769989 1.737915 11.009918 5.2137756 15.719788c3.47583 4.6924744 8.41153 8.376923 14.807068 11.053375c6.4129333 2.6590881 13.894653 3.988617 22.44522 3.988617c11.5224 0 23.583557 -3.1543884 36.18347 -9.463165l13.451538 15.850128c2.5720825 3.0066833 6.308655 4.51001 11.209595 4.51001c3.527954 0 6.360779 -0.88635254 8.498413 -2.6590881c2.1376343 -1.7553406 3.206421 -3.971222 3.206421 -6.6476746c0 -2.7807007 -1.2252197 -5.4484863 -3.6756592 -8.003265l-13.946838 -15.38089c9.714966 -8.011963 17.987488 -17.249207 24.817505 -27.71167c2.3635864 -3.7366028 3.5453491 -6.725891 3.5453491 -8.96785c0 -3.5280457 -3.1021729 -5.2920685 -9.306519 -5.2920685c-2.3461914 0 -4.3187866 0.3475952 -5.9176636 1.0427704c-1.598877 0.6951904 -2.9891968 1.9030609 -4.1709595 3.623642c-6.934326 9.61087 -13.929443 17.562012 -20.985413 23.853424c-11.209595 -12.600189 -20.22937 -23.540604 -27.059387 -32.821274c11.5224 -7.16037 19.551575 -14.181702 24.087524 -21.063995c4.553406 -6.8996735 6.830078 -14.242538 6.830078 -22.028564c0 -9.4023285 -2.5895386 -16.797318 -7.7685547 -22.184982c-5.178955 -5.3876495 -12.469543 -8.081482 -21.871704 -8.081482z" fill-rule="evenodd"/><defs><radialGradient id="p.5" gradientUnits="userSpaceOnUse" gradientTransform="matrix(21.920381310504162 0.0 0.0 21.920381310504162 0.0 0.0)" spreadMethod="pad" cx="21.890299015782617" cy="10.882338363194552" fx="21.890299015782617" fy="10.882338363194552" r="21.920381546020508"><stop offset="0.0" stop-color="#d4e5f5"/><stop offset="1.0" stop-color="#70a4d5"/></radialGradient></defs><path fill="url(#p.5)" d="m934.2359 170.21735c-3.302063 0 -6.1608887 0.8342285 -8.57666 2.502655c-2.3983154 1.651062 -4.5620117 4.12764 -6.49115 7.429764l-17.935303 30.918198c-1.1644287 2.0334015 -1.746582 3.9538422 -1.746582 5.761307c0 1.9291382 0.6604004 3.397705 1.9812012 4.405716c1.3381958 1.0080109 3.1282349 1.5120239 5.370178 1.5120239c2.2418823 0 4.2665405 -0.58221436 6.0740356 -1.7466431c1.8248291 -1.1818085 3.536621 -3.423767 5.135559 -6.725891l13.946777 -28.363403l3.6757202 28.363403c0.43444824 3.302124 1.3989868 5.5701447 2.8936157 6.8040924c1.4946289 1.2339478 3.467163 1.8509216 5.9176025 1.8509216c2.4678345 0 4.5794067 -0.72125244 6.334717 -2.1637573c1.75531 -1.4424896 2.6329956 -3.5019684 2.6329956 -6.178421c0 -1.0601501 -0.1564331 -2.2332764 -0.46923828 -3.5193481l-7.038574 -28.832657c-0.9732666 -4.171097 -2.3723145 -7.212509 -4.1970825 -9.124268c-1.8074951 -1.9291229 -4.3100586 -2.893692 -7.5078125 -2.893692zm-202.758 17.622864c2.0159912 0 3.6148682 1.0427704 4.796631 3.1283112c1.1817627 2.0855408 1.7727051 5.37027 1.7727051 9.854202c0 7.786026 -2.0855103 17.657608 -6.256531 29.61473c-6.725769 -5.00531 -10.088623 -12.747894 -10.088623 -23.227753c0 -6.1871185 0.90374756 -10.957809 2.7111816 -14.3120575c1.8247681 -3.3716278 4.1796875 -5.057434 7.064636 -5.057434zm42.15558 52.0204c0 0 0 0 0 0l0 0c0 0 0 0 0 0zm149.08002 9.164261c1.9116821 0 3.423706 0.6169739 4.5359497 1.8509216c1.1296387 1.216568 1.694458 2.8415527 1.694458 4.874954c0 3.9451447 -1.8161011 7.412369 -5.4483643 10.401657c-3.6148682 2.9892883 -8.57666 5.2312317 -14.885315 6.725891l0 -0.3128357c0 -6.517334 1.3643188 -12.070099 4.0928345 -16.658295c2.7285156 -4.588196 6.0653076 -6.8822937 10.010437 -6.8822937zm-128.93457 1.1209717c-0.3302002 1.7032013 -0.4953003 3.4150848 -0.4953003 5.1356506c0 4.0494385 0.87768555 7.89032 2.6329346 11.522644c1.7727051 3.6323242 4.3187866 6.569458 7.6381836 8.811432c-0.8689575 5.2312317 -2.5547485 9.237213 -5.057373 12.017944c-2.5025635 2.7633362 -5.4657593 4.1450195 -8.889404 4.1450195c-3.0935059 0 -5.7872925 -1.5467834 -8.08136 -4.6403503c-2.2940674 -3.0935364 -3.441101 -7.5774536 -3.441101 -13.451752c0 -7.4732056 1.4077148 -13.26059 4.2231445 -17.362152c2.8328247 -4.1189575 6.386902 -6.1784363 10.66217 -6.1784363zm-58.468933 -80.55415c-5.5439453 0 -10.592651 1.4425049 -15.145935 4.3274994c-4.5360107 2.86763 -8.116089 7.212509 -10.740356 13.034653c-2.6068726 5.822159 -3.9103394 12.947769 -3.9103394 21.376831c0 8.446457 1.651001 15.902283 4.953064 22.367477c3.319458 6.4477997 8.237732 11.705109 14.754944 15.771927c-5.4396973 11.626907 -11.418152 21.289932 -17.935303 28.98906c-6.517212 7.6817627 -12.547791 11.522644 -18.091736 11.522644c-5.4570923 0 -9.549927 -4.2406006 -12.278442 -12.721832c-2.7111206 -8.498596 -4.0667114 -20.91626 -4.0667114 -37.253036c0 -15.589447 1.598877 -32.995056 4.796631 -52.216812c0.22595215 -1.7032013 0.33892822 -2.8763123 0.33892822 -3.5193634c0 -6.08284 -3.5280151 -9.124252 -10.583923 -9.124252c-4.2753296 0 -7.2905884 0.9906311 -9.045898 2.9718933c-1.75531 1.9638977 -3.1195679 5.7265625 -4.0927734 11.28801c-2.6590576 14.946411 -3.9885254 31.813248 -3.9885254 50.600525c0 22.002487 2.7198486 39.46895 8.159485 52.399307c5.4396973 12.912994 13.712219 19.369507 24.817505 19.369507c10.79248 0 21.550232 -5.257324 32.273193 -15.771942c10.740356 -10.531982 19.89917 -23.749146 27.476501 -39.651413c5.5929565 1.2624817 11.8741455 1.9173737 18.843445 1.9646759l0 0c-2.5193481 5.8933716 -3.7790527 12.494446 -3.7790527 19.803192c0 5.995941 1.1730957 11.557404 3.519287 16.684357c2.3461914 5.1095886 5.7872925 9.219849 10.323242 12.33078c4.5359497 3.093567 10.010437 4.6403503 16.42334 4.6403503c7.5773315 0 14.355225 -2.6938477 20.33368 -8.081482c5.9783936 -5.40506 9.984314 -12.591492 12.0177 -21.559326c3.2806396 -0.13360596 6.4455566 -0.44314575 9.494812 -0.9286194l0 0c0.33709717 8.893677 3.2283325 16.12027 8.673584 21.67978c5.8220215 5.926422 13.964172 8.889648 24.426514 8.889648c6.517151 0 13.268982 -1.677124 20.255432 -5.031372c4.1867676 -2.0155334 8.019592 -4.537201 11.498352 -7.565033l0 0c0.80944824 1.1960754 1.7036743 2.3273926 2.6828613 3.393921c5.6656494 6.1349792 13.625305 9.202484 23.879028 9.202484c6.725708 0 12.5130005 -1.2774048 17.361816 -3.8321838c4.86615 -2.572174 8.793823 -6.1523743 11.783081 -10.74057c1.8074341 -2.7807312 2.7111816 -6.091522 2.7111816 -9.932404c0 -2.2419739 -0.39978027 -4.0059814 -1.1992188 -5.292053c-0.79937744 -1.2861023 -1.8942871 -1.9291382 -3.284668 -1.9291382c-1.598877 0 -3.0326538 0.7994385 -4.3013306 2.3983765c-3.7365112 4.8141174 -7.021179 8.2378845 -9.854004 10.271301c-2.8327637 2.0160217 -6.438965 3.0240479 -10.8185425 3.0240479c-6.0827637 0 -10.410156 -2.450531 -12.982239 -7.3515625c12.704163 -3.0935364 21.697937 -7.282013 26.981201 -12.565399c5.300659 -5.3007507 7.950989 -11.63559 7.950989 -19.004517c0 -6.291397 -1.8682861 -11.279327 -5.6047974 -14.963791c-3.7365723 -3.6844635 -8.70697 -5.5266876 -14.911377 -5.5266876c-6.934265 0 -13.156006 1.8683014 -18.665222 5.604904c-5.4918823 3.7365875 -9.784546 8.785355 -12.877991 15.1462555c-3.0935059 6.3435364 -4.640259 13.199768 -4.640259 20.568695c0 2.23703 0.12908936 4.37558 0.3873291 6.415558l0 0c-2.9091187 2.7155151 -5.8449097 4.9305725 -8.807373 6.645172c-5.074707 2.9371338 -9.801819 4.4057007 -14.1813965 4.4057007c-10.775085 0 -16.162659 -6.195801 -16.162659 -18.587402c0 -4.4839478 0.6343384 -8.594177 1.9030151 -12.330811c1.2860718 -3.7365723 2.9979248 -6.6997986 5.135559 -8.889618c2.1376343 -2.1898193 4.4317017 -3.284729 6.882141 -3.284729c1.2860718 0 2.2766724 0.37365723 2.9718628 1.1209717c0.6951904 0.7473297 1.0427246 1.8161621 1.0427246 3.2065277c0 1.3903656 -0.26934814 2.8849945 -0.80810547 4.4839325c-0.10424805 0.43447876 -0.26068115 1.1296692 -0.46923828 2.0855408c-0.20855713 0.9558716 -0.31280518 1.8074646 -0.31280518 2.554779c0 1.7032166 0.60821533 3.0414429 1.8247681 4.014679c1.2339478 0.9558716 2.8676147 1.4338074 4.90094 1.4338074c3.197815 0 5.7786255 -1.5467834 7.7424316 -4.64032c1.9812622 -3.093567 2.9718628 -6.882324 2.9718628 -11.366226c0 -5.457184 -1.633667 -9.915024 -4.90094 -13.373566c-3.249939 -3.475891 -7.8032837 -5.213852 -13.660034 -5.213852c-5.9784546 0 -11.696167 1.7640228 -17.15326 5.2920685c-5.4396973 3.510666 -9.871399 8.524658 -13.295105 15.041992c-1.1898193 2.2765045 -2.171875 4.683426 -2.946045 7.2207794l0 0c-3.8104858 0.76382446 -7.2596436 1.2419128 -10.347534 1.4342346c-0.8515625 -8.22052 -3.7625732 -15.128891 -8.733032 -20.725113c-4.953064 -5.6135864 -11.487671 -8.42038 -19.603699 -8.42038c-6.621521 0 -12.660767 1.7901001 -18.117859 5.37027c-0.6399536 0.4191742 -1.2636719 0.8577118 -1.8712158 1.3156128c-1.1116333 -0.72065735 -2.6765137 -1.0809784 -4.694763 -1.0809784c-7.2470703 0 -13.703491 -0.4866333 -19.36908 -1.4598846c5.335388 -14.511917 8.003113 -27.911545 8.003113 -40.198868c0 -8.533356 -2.0073242 -15.250549 -6.0219116 -20.15158c-3.9971924 -4.9184113 -9.410828 -7.3776093 -16.240845 -7.3776093z" fill-rule="evenodd"/><path stroke="#595959" stroke-width="1.0" stroke-linejoin="round" stroke-linecap="butt" d="m68.85609 171.99007c-10.462265 0 -19.568954 1.6597443 -27.320095 4.979233c-7.7337227 3.3021088 -13.660048 7.942459 -17.778917 13.9210205c-4.101507 5.9785614 -6.152235 12.808716 -6.152235 20.490463c0 7.368927 1.8421783 13.538666 5.5265846 18.509216c3.6844063 4.953171 8.116102 8.872253 13.295086 11.757248c5.178982 2.8850098 11.878662 5.9351196 20.099041 9.15033c6.412922 2.5547943 11.374672 4.7185516 14.885277 6.491272c3.5279694 1.75531 6.465065 3.94516 8.811256 6.569458c2.3635788 2.6069336 3.5453568 5.7265625 3.5453568 9.358887c0 5.8742676 -2.5634232 10.436401 -7.6902924 13.686371c-5.126877 3.2499695 -12.226269 4.8749695 -21.29821 4.8749695c-8.759113 0 -15.571774 -1.1731262 -20.437935 -3.5193481c-4.848793 -2.3462524 -7.2731915 -5.917755 -7.2731915 -10.714508c0 -1.1817932 0.078207016 -2.3027954 0.23461914 -3.362915c0.15641212 -1.0775452 0.23461914 -1.8248596 0.23461914 -2.2419739c0.31282616 -1.6163025 0.46923828 -3.4845886 0.46923828 -5.604889c0 -2.363617 -0.9037018 -4.292755 -2.711155 -5.787384c-1.8074532 -1.4946594 -4.1536446 -2.2419739 -7.038574 -2.2419739c-3.9624567 0 -6.960368 1.555481 -8.993734 4.6664124c-2.0160036 3.0935364 -3.0239797 7.5774536 -3.0239797 13.451752c0 11.10553 4.2665753 19.352112 12.799778 24.739777c8.550564 5.387665 19.925266 8.081482 34.12405 8.081482c16.023628 0 28.806015 -3.3890076 38.3472 -10.167023c9.558563 -6.778015 14.337837 -16.467102 14.337837 -29.067291c0 -6.7258606 -1.7379303 -12.382904 -5.2137604 -16.971115c-3.4584656 -4.6055756 -7.646866 -8.2379 -12.565163 -10.896973c-4.9009323 -2.6764374 -11.409447 -5.6657257 -19.52552 -8.967834c-6.725754 -2.6764526 -11.956898 -4.9705505 -15.693417 -6.8822937c-3.7365189 -1.9291382 -6.86475 -4.336197 -9.384766 -7.2212067c-2.5026054 -2.8849945 -3.7539062 -6.3522186 -3.7539062 -10.401642c0 -6.08284 2.4243965 -10.810074 7.2731934 -14.181702c4.866184 -3.371643 11.887371 -5.0574493 21.063587 -5.0574493c6.5171967 0 11.965576 1.1818085 16.34513 3.5454254c4.3795547 2.3462372 6.569336 5.761307 6.569336 10.245239c0 0.851593 -0.15641022 2.8763123 -0.46923828 6.0741425c-0.33021545 1.720581 -0.49530792 3.5888824 -0.49530792 5.604904c0 2.363617 0.9297943 4.3970184 2.78936 6.1002197c1.8769531 1.703186 4.205757 2.5547943 6.9864426 2.5547943c3.9450684 0 6.9342957 -1.7032013 8.967659 -5.1095886c2.033371 -3.423767 3.0500488 -8.498596 3.0500488 -15.224472c0 -6.8301697 -1.9551544 -12.591476 -5.8654785 -17.28395c-3.892929 -4.709854 -9.098007 -8.211838 -15.615204 -10.505936c-6.4998093 -2.294098 -13.651344 -3.4411469 -21.45462 -3.4411469z" fill-rule="evenodd"/><path stroke="#595959" stroke-width="1.0" stroke-linejoin="round" stroke-linecap="butt" d="m253.51358 174.38844c-1.9117126 0 -3.6409302 0.5126953 -5.1876984 1.5380859c-1.5467377 1.0080109 -2.806717 2.5808563 -3.7799683 4.7185516l-14.885284 33.290497c-0.5387573 1.286087 -0.808136 2.3027954 -0.808136 3.0501099c0 1.5989227 0.5561371 2.963211 1.6684113 4.0928802c1.1296387 1.1122894 2.4417572 1.6684418 3.936386 1.6684418c2.033371 0 3.745224 -0.90374756 5.135544 -2.7112122l20.646484 -26.590698c2.3635864 -2.989273 3.5453491 -5.978546 3.5453491 -8.967834c0 -2.8850098 -1.0427246 -5.283386 -3.1282349 -7.1951294c-2.0855103 -1.9291229 -4.466461 -2.893692 -7.142853 -2.893692zm87.318115 -1.2774048c0.95584106 0 1.7813416 1.1209869 2.476532 3.3629456c0.6951599 2.2419586 1.0427551 5.387665 1.0427551 9.437088c0 15.815384 -5.9784546 36.74904 -17.935333 62.800964c0.6430359 -12.704437 1.685791 -24.878815 3.1282654 -36.5231c1.4424744 -11.644287 3.171692 -21.063995 5.187683 -28.259125c2.0333557 -7.212509 4.066742 -10.818756 6.1000977 -10.818771zm41.479584 75.91383c1.9116821 0 3.4236755 0.6169739 4.5359497 1.8509216c1.1296692 1.216568 1.6944885 2.8415527 1.6944885 4.874954c0 3.9451447 -1.8161316 7.412369 -5.448395 10.401657c-3.6148682 2.9892883 -8.57663 5.2312317 -14.885284 6.725891l0 -0.3128357c0 -6.517334 1.3642883 -12.070099 4.092804 -16.658295c2.7285461 -4.588196 6.065338 -6.8822937 10.010437 -6.8822937zm-220.08224 -1.1209869l-5.917618 29.458328c-0.9558563 4.6055603 -2.502594 8.298706 -4.6402435 11.079437c-2.1376343 2.7633667 -4.3795624 4.1450195 -6.725754 4.1450195c-2.3461914 0 -4.188385 -0.7994385 -5.526581 -2.3983765c-1.3381805 -1.5989075 -2.0072937 -4.058136 -2.0072937 -7.377594c0 -5.9785767 1.1209564 -11.63562 3.3628693 -16.97113c2.241928 -5.3355103 5.2572174 -9.628265 9.045883 -12.878235c3.7886505 -3.2673492 7.9249115 -4.953171 12.408737 -5.0574493zm144.94785 1.1209869c-0.20855713 5.7700043 -0.3128357 9.932404 -0.3128357 12.487183c0 7.16037 0.5387573 13.625549 1.616272 19.395569c-3.1108704 4.483917 -5.6829834 7.551422 -7.7163696 9.202484c-2.0159912 1.651062 -4.0406494 2.4765625 -6.0740356 2.4765625c-5.335388 0 -8.003113 -3.8930054 -8.003113 -11.679047c0 -7.368927 1.9464722 -14.068726 5.8394165 -20.099426c3.9103088 -6.0480804 8.793884 -9.975861 14.650665 -11.783325zm35.40143 -91.607544c-9.280487 0 -16.779602 7.3428497 -22.497375 22.028564c-5.7177734 14.66832 -9.584625 32.360703 -11.600616 53.077103c-7.9075317 0.851593 -15.041687 3.6062622 -21.402466 8.263977c-6.3434143 4.640335 -11.331268 10.6188965 -14.963501 17.935684c-3.5153503 7.081299 -5.32959 14.732391 -5.442749 22.953247l0 0c-2.1177368 2.315216 -3.9577026 4.170746 -5.519867 5.566559c-2.9371033 2.6069336 -5.4744415 3.9104004 -7.612091 3.9104004c-1.3903198 0 -2.5112762 -0.55615234 -3.3628693 -1.6684265c-0.851593 -1.1296692 -1.2773743 -2.7112122 -1.2773743 -4.744629c0 -3.197815 1.4945984 -11.63559 4.483841 -25.313293c2.6589966 -11.957123 3.9885254 -19.265213 3.9885254 -21.924286c0 -1.6162872 -0.4779358 -2.711197 -1.4337921 -3.284729c-0.9558563 -0.59091187 -2.6677246 -0.88635254 -5.135544 -0.88635254c-3.5106049 0 -6.152237 0.6951752 -7.9249268 2.0855408c-1.7552795 1.3903656 -3.0587158 3.6844635 -3.9103088 6.8822937c-2.5721283 9.506607 -5.222473 17.518585 -7.950989 24.03592c-2.7111511 6.499939 -5.2745667 11.357513 -7.6902924 14.572723c-2.3983307 3.1978455 -4.396942 4.796753 -5.995819 4.796753c-1.1644135 0 -2.0160065 -0.45187378 -2.5547485 -1.3555908c-0.5387573 -0.90374756 -0.8081207 -2.476593 -0.8081207 -4.718567c0 -3.7539673 1.0688171 -11.23587 3.2064514 -22.445648c0.6430359 -3.1978455 1.4946289 -6.769348 2.5547485 -10.714493c1.181778 -4.9184113 1.7726746 -7.803421 1.7726746 -8.655014c0 -1.4946289 -0.45184326 -2.6156158 -1.3555756 -3.3629456c-0.9037323 -0.74731445 -2.537384 -1.1209717 -4.90094 -1.1209717c-4.15361 0 -7.194977 0.6951752 -9.124069 2.0855408c-1.9117126 1.3903656 -3.406311 3.6844635 -4.483841 6.8822937c-2.4504547 7.4732056 -4.2144623 14.546692 -5.2919617 21.220428c-0.77497864 4.878662 -1.2667084 10.114899 -1.4751587 15.708679l0 0c-3.0518036 3.4855042 -5.598648 6.156952 -7.6405487 8.014374c-2.8849487 2.6069336 -5.344101 3.9104004 -7.3774567 3.9104004c-1.2860565 0 -2.3288116 -0.4779358 -3.1282654 -1.4338074c-0.79945374 -0.9732666 -1.1991577 -2.2593384 -1.1991577 -3.8582458c0 -4.796753 1.2339172 -13.338806 3.701767 -25.62613c1.598877 -8.429092 2.3983307 -13.764603 2.3983307 -16.006561c0 -3.7366028 -2.61557 -5.604904 -7.84671 -5.604904c-2.4678497 0 -4.8227234 0.20855713 -7.064636 0.6256561c-0.52137756 -2.3462372 -1.181778 -3.971222 -1.9812317 -4.874954c-0.79945374 -0.9037323 -2.3809662 -1.3556061 -4.744522 -1.3556061c-7.3687897 0 -14.337845 2.3201752 -20.90718 6.9605103c-6.551941 4.640335 -11.809158 10.783997 -15.771614 18.431c-3.9450684 7.629608 -5.917618 15.71109 -5.917618 24.244446c0 7.8034363 1.9725494 14.112183 5.917618 18.92633c3.9624557 4.796753 9.254417 7.1951294 15.875893 7.1951294c8.428909 0 15.415344 -4.483917 20.95932 -13.451782c1.5119781 4.153717 3.727829 7.438446 6.647537 9.854218c2.937088 2.3983765 6.1696167 3.5975647 9.697586 3.5975647c4.5881042 0 9.341309 -1.8683167 14.259628 -5.6049194c2.1295776 -1.6178894 4.2086334 -3.3970947 6.237213 -5.337555l0 0c0.63952637 1.5305786 1.4165497 2.9621887 2.3310547 4.2948c3.0413666 4.4317627 6.9690704 6.6476746 11.783096 6.6476746c4.15361 0 8.046539 -1.9465027 11.678818 -5.8395386c3.6322327 -3.9104004 6.3520813 -9.497925 8.159531 -16.762573c0 7.16037 1.1991577 12.721832 3.5974884 16.684357c2.4157257 3.94516 6.1870117 5.917755 11.313858 5.917755c6.725754 0 12.73024 -1.8161621 18.013535 -5.4484863c2.276123 -1.5648804 4.487732 -3.3184204 6.634796 -5.260681l0 0c0.7232666 1.2167664 1.5489197 2.3620605 2.4769287 3.4358215c4.2231445 4.8489075 9.593323 7.273346 16.110535 7.273346c4.4838257 0 8.402832 -0.9558716 11.757019 -2.8676453c3.3715515 -1.9291077 7.2992554 -5.726532 11.783081 -11.392273c4.275299 9.506592 10.470978 14.259918 18.587067 14.259918c5.1268616 0 10.305847 -1.8943787 15.536987 -5.6831055c2.7875977 -2.0282288 5.454254 -4.27359 8.0000305 -6.736084l0 0c0.77731323 1.1307373 1.6313171 2.2029724 2.5619507 3.2167053c5.6656494 6.1349792 13.625305 9.202484 23.879028 9.202484c6.7257385 0 12.513031 -1.2774048 17.361816 -3.8321838c4.8661804 -2.572174 8.793884 -6.1523743 11.783112 -10.74057c1.8074341 -2.7807312 2.7111511 -6.091522 2.7111511 -9.932404c0 -2.2419739 -0.39971924 -4.0059814 -1.1991882 -5.292053c-0.7994385 -1.2861023 -1.8943176 -1.9291382 -3.284668 -1.9291382c-1.598877 0 -3.0326538 0.7994385 -4.3013306 2.3983765c-3.7365417 4.8141174 -7.0212097 8.2378845 -9.854004 10.271301c-2.8328247 2.0160217 -6.4389954 3.0240479 -10.818573 3.0240479c-6.0827026 0 -10.410126 -2.450531 -12.982239 -7.3515625c12.704193 -3.0935364 21.697906 -7.282013 26.981201 -12.565399c5.300659 -5.3007507 7.950989 -11.63559 7.950989 -19.004517c0 -6.291397 -1.8682861 -11.279327 -5.6047974 -14.963791c-3.7365417 -3.6844635 -8.70697 -5.5266876 -14.911346 -5.5266876c-6.9342957 0 -13.156067 1.8683014 -18.665253 5.604904c-5.4918213 3.7365875 -9.784485 8.785355 -12.877991 15.1462555c-3.0935059 6.3435364 -4.640259 13.199768 -4.640259 20.568695c0 2.3913574 0.14755249 4.6701355 0.44262695 6.8363647l0 0c-2.276245 2.4657898 -4.241272 4.4102173 -5.895111 5.833313c-2.9892273 2.554779 -5.9263 3.8321838 -8.811249 3.8321838c-2.2419434 0 -4.0841064 -1.3295288 -5.5266113 -3.9885864c-1.4424744 -2.6764526 -2.3722534 -7.1169434 -2.7893372 -13.321442c9.819244 -16.858154 17.665924 -33.29918 23.5401 -49.32312c5.874176 -16.023926 8.811249 -30.014465 8.811249 -41.971573c0 -8.429077 -1.5293579 -14.720474 -4.5881042 -18.874191c-3.0413513 -4.1710815 -6.856079 -6.2566223 -11.444183 -6.2566223z" fill-rule="evenodd"/><path stroke="#595959" stroke-width="1.0" stroke-linejoin="round" stroke-linecap="butt" d="m517.4869 184.16443c3.9451294 0 6.934326 1.1209869 8.967712 3.3629456c2.0333252 2.2419586 3.0500488 5.3355103 3.0500488 9.28067c0 5.439789 -1.4946289 10.462479 -4.4838867 15.068054c-2.9891968 4.588211 -8.646118 9.332825 -16.970764 14.233841c-4.50119 -7.994583 -6.7518005 -15.354813 -6.7518005 -22.080704c0 -5.6657257 1.4424744 -10.39296 4.327423 -14.181702c2.8849487 -3.7887268 6.838684 -5.6831055 11.861267 -5.6831055zm-17.935303 66.789566c6.5171814 9.610886 15.432739 21.194351 26.746582 34.75038c-7.5773315 3.6323242 -15.52832 5.4484863 -23.852936 5.4484863c-6.517212 0 -11.6440735 -1.3555908 -15.380615 -4.066803c-3.7365112 -2.7285767 -5.604767 -6.5520935 -5.604767 -11.4704895c0 -8.550751 6.0305786 -16.77127 18.091736 -24.661575zm19.056274 -83.60426c-7.3687744 0 -13.912048 1.5989075 -19.629791 4.796753c-5.7003784 3.1978302 -10.158142 7.7338867 -13.373291 13.60817c-3.1977844 5.874283 -4.7966614 12.652313 -4.7966614 20.33406c0 8.655014 3.0935059 18.639557 9.280487 29.953644c-10.983643 6.6215973 -18.90857 13.330093 -23.77475 20.125488c-4.86615 6.778015 -7.2992554 14.060059 -7.2992554 21.8461c0 5.769989 1.737915 11.009918 5.2137756 15.719788c3.47583 4.6924744 8.41153 8.376923 14.807068 11.053375c6.4129333 2.6590881 13.894653 3.988617 22.44522 3.988617c11.5224 0 23.583557 -3.1543884 36.18347 -9.463165l13.451538 15.850128c2.5720825 3.0066833 6.308655 4.51001 11.209595 4.51001c3.527954 0 6.360779 -0.88635254 8.498413 -2.6590881c2.1376343 -1.7553406 3.206421 -3.971222 3.206421 -6.6476746c0 -2.7807007 -1.2252197 -5.4484863 -3.6756592 -8.003265l-13.946838 -15.38089c9.714966 -8.011963 17.987488 -17.249207 24.817505 -27.71167c2.3635864 -3.7366028 3.5453491 -6.725891 3.5453491 -8.96785c0 -3.5280457 -3.1021729 -5.2920685 -9.306519 -5.2920685c-2.3461914 0 -4.3187866 0.3475952 -5.9176636 1.0427704c-1.598877 0.6951904 -2.9891968 1.9030609 -4.1709595 3.623642c-6.934326 9.61087 -13.929443 17.562012 -20.985413 23.853424c-11.209595 -12.600189 -20.22937 -23.540604 -27.059387 -32.821274c11.5224 -7.16037 19.551575 -14.181702 24.087524 -21.063995c4.553406 -6.8996735 6.830078 -14.242538 6.830078 -22.028564c0 -9.4023285 -2.5895386 -16.797318 -7.7685547 -22.184982c-5.178955 -5.3876495 -12.469543 -8.081482 -21.871704 -8.081482z" fill-rule="evenodd"/><path stroke="#595959" stroke-width="1.0" stroke-linejoin="round" stroke-linecap="butt" d="m934.2359 170.21735c-3.302063 0 -6.1608887 0.8342285 -8.57666 2.502655c-2.3983154 1.651062 -4.5620117 4.12764 -6.49115 7.429764l-17.935303 30.918198c-1.1644287 2.0334015 -1.746582 3.9538422 -1.746582 5.761307c0 1.9291382 0.6604004 3.397705 1.9812012 4.405716c1.3381958 1.0080109 3.1282349 1.5120239 5.370178 1.5120239c2.2418823 0 4.2665405 -0.58221436 6.0740356 -1.7466431c1.8248291 -1.1818085 3.536621 -3.423767 5.135559 -6.725891l13.946777 -28.363403l3.6757202 28.363403c0.43444824 3.302124 1.3989868 5.5701447 2.8936157 6.8040924c1.4946289 1.2339478 3.467163 1.8509216 5.9176025 1.8509216c2.4678345 0 4.5794067 -0.72125244 6.334717 -2.1637573c1.75531 -1.4424896 2.6329956 -3.5019684 2.6329956 -6.178421c0 -1.0601501 -0.1564331 -2.2332764 -0.46923828 -3.5193481l-7.038574 -28.832657c-0.9732666 -4.171097 -2.3723145 -7.212509 -4.1970825 -9.124268c-1.8074951 -1.9291229 -4.3100586 -2.893692 -7.5078125 -2.893692zm-202.758 17.622864c2.0159912 0 3.6148682 1.0427704 4.796631 3.1283112c1.1817627 2.0855408 1.7727051 5.37027 1.7727051 9.854202c0 7.786026 -2.0855103 17.657608 -6.256531 29.61473c-6.725769 -5.00531 -10.088623 -12.747894 -10.088623 -23.227753c0 -6.1871185 0.90374756 -10.957809 2.7111816 -14.3120575c1.8247681 -3.3716278 4.1796875 -5.057434 7.064636 -5.057434zm42.15558 52.0204c0 0 0 0 0 0l0 0c0 0 0 0 0 0zm149.08002 9.164261c1.9116821 0 3.423706 0.6169739 4.5359497 1.8509216c1.1296387 1.216568 1.694458 2.8415527 1.694458 4.874954c0 3.9451447 -1.8161011 7.412369 -5.4483643 10.401657c-3.6148682 2.9892883 -8.57666 5.2312317 -14.885315 6.725891l0 -0.3128357c0 -6.517334 1.3643188 -12.070099 4.0928345 -16.658295c2.7285156 -4.588196 6.0653076 -6.8822937 10.010437 -6.8822937zm-128.93457 1.1209717c-0.3302002 1.7032013 -0.4953003 3.4150848 -0.4953003 5.1356506c0 4.0494385 0.87768555 7.89032 2.6329346 11.522644c1.7727051 3.6323242 4.3187866 6.569458 7.6381836 8.811432c-0.8689575 5.2312317 -2.5547485 9.237213 -5.057373 12.017944c-2.5025635 2.7633362 -5.4657593 4.1450195 -8.889404 4.1450195c-3.0935059 0 -5.7872925 -1.5467834 -8.08136 -4.6403503c-2.2940674 -3.0935364 -3.441101 -7.5774536 -3.441101 -13.451752c0 -7.4732056 1.4077148 -13.26059 4.2231445 -17.362152c2.8328247 -4.1189575 6.386902 -6.1784363 10.66217 -6.1784363zm-58.468933 -80.55415c-5.5439453 0 -10.592651 1.4425049 -15.145935 4.3274994c-4.5360107 2.86763 -8.116089 7.212509 -10.740356 13.034653c-2.6068726 5.822159 -3.9103394 12.947769 -3.9103394 21.376831c0 8.446457 1.651001 15.902283 4.953064 22.367477c3.319458 6.4477997 8.237732 11.705109 14.754944 15.771927c-5.4396973 11.626907 -11.418152 21.289932 -17.935303 28.98906c-6.517212 7.6817627 -12.547791 11.522644 -18.091736 11.522644c-5.4570923 0 -9.549927 -4.2406006 -12.278442 -12.721832c-2.7111206 -8.498596 -4.0667114 -20.91626 -4.0667114 -37.253036c0 -15.589447 1.598877 -32.995056 4.796631 -52.216812c0.22595215 -1.7032013 0.33892822 -2.8763123 0.33892822 -3.5193634c0 -6.08284 -3.5280151 -9.124252 -10.583923 -9.124252c-4.2753296 0 -7.2905884 0.9906311 -9.045898 2.9718933c-1.75531 1.9638977 -3.1195679 5.7265625 -4.0927734 11.28801c-2.6590576 14.946411 -3.9885254 31.813248 -3.9885254 50.600525c0 22.002487 2.7198486 39.46895 8.159485 52.399307c5.4396973 12.912994 13.712219 19.369507 24.817505 19.369507c10.79248 0 21.550232 -5.257324 32.273193 -15.771942c10.740356 -10.531982 19.89917 -23.749146 27.476501 -39.651413c5.5929565 1.2624817 11.8741455 1.9173737 18.843445 1.9646759l0 0c-2.5193481 5.8933716 -3.7790527 12.494446 -3.7790527 19.803192c0 5.995941 1.1730957 11.557404 3.519287 16.684357c2.3461914 5.1095886 5.7872925 9.219849 10.323242 12.33078c4.5359497 3.093567 10.010437 4.6403503 16.42334 4.6403503c7.5773315 0 14.355225 -2.6938477 20.33368 -8.081482c5.9783936 -5.40506 9.984314 -12.591492 12.0177 -21.559326c3.2806396 -0.13360596 6.4455566 -0.44314575 9.494812 -0.9286194l0 0c0.33709717 8.893677 3.2283325 16.12027 8.673584 21.67978c5.8220215 5.926422 13.964172 8.889648 24.426514 8.889648c6.517151 0 13.268982 -1.677124 20.255432 -5.031372c4.1867676 -2.0155334 8.019592 -4.537201 11.498352 -7.565033l0 0c0.80944824 1.1960754 1.7036743 2.3273926 2.6828613 3.393921c5.6656494 6.1349792 13.625305 9.202484 23.879028 9.202484c6.725708 0 12.5130005 -1.2774048 17.361816 -3.8321838c4.86615 -2.572174 8.793823 -6.1523743 11.783081 -10.74057c1.8074341 -2.7807312 2.7111816 -6.091522 2.7111816 -9.932404c0 -2.2419739 -0.39978027 -4.0059814 -1.1992188 -5.292053c-0.79937744 -1.2861023 -1.8942871 -1.9291382 -3.284668 -1.9291382c-1.598877 0 -3.0326538 0.7994385 -4.3013306 2.3983765c-3.7365112 4.8141174 -7.021179 8.2378845 -9.854004 10.271301c-2.8327637 2.0160217 -6.438965 3.0240479 -10.8185425 3.0240479c-6.0827637 0 -10.410156 -2.450531 -12.982239 -7.3515625c12.704163 -3.0935364 21.697937 -7.282013 26.981201 -12.565399c5.300659 -5.3007507 7.950989 -11.63559 7.950989 -19.004517c0 -6.291397 -1.8682861 -11.279327 -5.6047974 -14.963791c-3.7365723 -3.6844635 -8.70697 -5.5266876 -14.911377 -5.5266876c-6.934265 0 -13.156006 1.8683014 -18.665222 5.604904c-5.4918823 3.7365875 -9.784546 8.785355 -12.877991 15.1462555c-3.0935059 6.3435364 -4.640259 13.199768 -4.640259 20.568695c0 2.23703 0.12908936 4.37558 0.3873291 6.415558l0 0c-2.9091187 2.7155151 -5.8449097 4.9305725 -8.807373 6.645172c-5.074707 2.9371338 -9.801819 4.4057007 -14.1813965 4.4057007c-10.775085 0 -16.162659 -6.195801 -16.162659 -18.587402c0 -4.4839478 0.6343384 -8.594177 1.9030151 -12.330811c1.2860718 -3.7365723 2.9979248 -6.6997986 5.135559 -8.889618c2.1376343 -2.1898193 4.4317017 -3.284729 6.882141 -3.284729c1.2860718 0 2.2766724 0.37365723 2.9718628 1.1209717c0.6951904 0.7473297 1.0427246 1.8161621 1.0427246 3.2065277c0 1.3903656 -0.26934814 2.8849945 -0.80810547 4.4839325c-0.10424805 0.43447876 -0.26068115 1.1296692 -0.46923828 2.0855408c-0.20855713 0.9558716 -0.31280518 1.8074646 -0.31280518 2.554779c0 1.7032166 0.60821533 3.0414429 1.8247681 4.014679c1.2339478 0.9558716 2.8676147 1.4338074 4.90094 1.4338074c3.197815 0 5.7786255 -1.5467834 7.7424316 -4.64032c1.9812622 -3.093567 2.9718628 -6.882324 2.9718628 -11.366226c0 -5.457184 -1.633667 -9.915024 -4.90094 -13.373566c-3.249939 -3.475891 -7.8032837 -5.213852 -13.660034 -5.213852c-5.9784546 0 -11.696167 1.7640228 -17.15326 5.2920685c-5.4396973 3.510666 -9.871399 8.524658 -13.295105 15.041992c-1.1898193 2.2765045 -2.171875 4.683426 -2.946045 7.2207794l0 0c-3.8104858 0.76382446 -7.2596436 1.2419128 -10.347534 1.4342346c-0.8515625 -8.22052 -3.7625732 -15.128891 -8.733032 -20.725113c-4.953064 -5.6135864 -11.487671 -8.42038 -19.603699 -8.42038c-6.621521 0 -12.660767 1.7901001 -18.117859 5.37027c-0.6399536 0.4191742 -1.2636719 0.8577118 -1.8712158 1.3156128c-1.1116333 -0.72065735 -2.6765137 -1.0809784 -4.694763 -1.0809784c-7.2470703 0 -13.703491 -0.4866333 -19.36908 -1.4598846c5.335388 -14.511917 8.003113 -27.911545 8.003113 -40.198868c0 -8.533356 -2.0073242 -15.250549 -6.0219116 -20.15158c-3.9971924 -4.9184113 -9.410828 -7.3776093 -16.240845 -7.3776093z" fill-rule="evenodd"/></g></g></svg>